<mxfile host="app.diagrams.net" agent="Mozilla/5.0 (Windows NT 10.0; Win64; x64) AppleWebKit/537.36 (KHTML, like Gecko) Chrome/129.0.0.0 Safari/537.36" version="24.7.17">
  <diagram name="PÃ¡gina-1" id="aGOEEGgYlH6zg3QxWUaJ">
    <mxGraphModel dx="1434" dy="756" grid="1" gridSize="10" guides="1" tooltips="1" connect="1" arrows="1" fold="1" page="1" pageScale="1" pageWidth="827" pageHeight="1169" background="#ffffff" math="0" shadow="0">
      <root>
        <mxCell id="0" />
        <mxCell id="1" parent="0" />
        <mxCell id="PBPrK-Bsh0bXipVN9XXb-1" value="&lt;b&gt;&lt;font style=&quot;font-size: 16px;&quot;&gt;INICIO&lt;/font&gt;&lt;/b&gt;" style="ellipse;whiteSpace=wrap;html=1;" parent="1" vertex="1">
          <mxGeometry x="312.5" y="20" width="135" height="60" as="geometry" />
        </mxCell>
        <mxCell id="PBPrK-Bsh0bXipVN9XXb-2" value="&lt;b&gt;&lt;font style=&quot;font-size: 15px;&quot;&gt;Pide un numero&lt;/font&gt;&lt;/b&gt;" style="shape=parallelogram;perimeter=parallelogramPerimeter;whiteSpace=wrap;html=1;fixedSize=1;" parent="1" vertex="1">
          <mxGeometry x="305" y="110" width="150" height="70" as="geometry" />
        </mxCell>
        <mxCell id="PBPrK-Bsh0bXipVN9XXb-3" value="&lt;b style=&quot;font-size: 13px;&quot;&gt;&lt;font style=&quot;font-size: 13px;&quot;&gt;Declara i = 1&lt;/font&gt;&lt;/b&gt;&lt;div style=&quot;font-size: 13px;&quot;&gt;&lt;b&gt;&lt;font style=&quot;font-size: 13px;&quot;&gt;Declara Result = i&lt;/font&gt;&lt;/b&gt;&lt;/div&gt;&lt;div style=&quot;font-size: 13px;&quot;&gt;&lt;b style=&quot;&quot;&gt;&lt;font style=&quot;font-size: 13px;&quot;&gt;Declara N = numero leido&lt;/font&gt;&lt;/b&gt;&lt;/div&gt;" style="rounded=0;whiteSpace=wrap;html=1;" parent="1" vertex="1">
          <mxGeometry x="295" y="240" width="170" height="60" as="geometry" />
        </mxCell>
        <mxCell id="PBPrK-Bsh0bXipVN9XXb-4" value="&lt;b&gt;&lt;font style=&quot;font-size: 16px;&quot;&gt;i &amp;lt;= N&lt;/font&gt;&lt;/b&gt;" style="rhombus;whiteSpace=wrap;html=1;" parent="1" vertex="1">
          <mxGeometry x="340" y="358.34" width="80" height="73.33" as="geometry" />
        </mxCell>
        <mxCell id="PBPrK-Bsh0bXipVN9XXb-5" value="&lt;b&gt;&lt;font style=&quot;font-size: 14px;&quot;&gt;Muestra Result&lt;/font&gt;&lt;/b&gt;" style="shape=parallelogram;perimeter=parallelogramPerimeter;whiteSpace=wrap;html=1;fixedSize=1;" parent="1" vertex="1">
          <mxGeometry x="620" y="365" width="140" height="60" as="geometry" />
        </mxCell>
        <mxCell id="PBPrK-Bsh0bXipVN9XXb-6" value="&lt;b&gt;&lt;font style=&quot;font-size: 16px;&quot;&gt;FIN&lt;/font&gt;&lt;/b&gt;" style="ellipse;whiteSpace=wrap;html=1;" parent="1" vertex="1">
          <mxGeometry x="635" y="470" width="110" height="55" as="geometry" />
        </mxCell>
        <mxCell id="PBPrK-Bsh0bXipVN9XXb-8" value="&lt;b style=&quot;font-size: 16px;&quot;&gt;&lt;font style=&quot;font-size: 16px;&quot;&gt;Result *= i;&lt;/font&gt;&lt;/b&gt;&lt;div style=&quot;font-size: 16px;&quot;&gt;&lt;b style=&quot;&quot;&gt;&lt;font style=&quot;font-size: 16px;&quot;&gt;i++;&lt;/font&gt;&lt;/b&gt;&lt;/div&gt;" style="rounded=0;whiteSpace=wrap;html=1;" parent="1" vertex="1">
          <mxGeometry x="300" y="500" width="160" height="60" as="geometry" />
        </mxCell>
        <mxCell id="PBPrK-Bsh0bXipVN9XXb-11" value="" style="endArrow=classic;html=1;rounded=0;entryX=0.5;entryY=0;entryDx=0;entryDy=0;" parent="1" source="PBPrK-Bsh0bXipVN9XXb-1" target="PBPrK-Bsh0bXipVN9XXb-2" edge="1">
          <mxGeometry width="50" height="50" relative="1" as="geometry">
            <mxPoint x="390" y="400" as="sourcePoint" />
            <mxPoint x="440" y="350" as="targetPoint" />
          </mxGeometry>
        </mxCell>
        <mxCell id="PBPrK-Bsh0bXipVN9XXb-12" value="" style="endArrow=classic;html=1;rounded=0;entryX=0.5;entryY=0;entryDx=0;entryDy=0;exitX=0.5;exitY=1;exitDx=0;exitDy=0;" parent="1" source="PBPrK-Bsh0bXipVN9XXb-2" target="PBPrK-Bsh0bXipVN9XXb-3" edge="1">
          <mxGeometry width="50" height="50" relative="1" as="geometry">
            <mxPoint x="390" y="110" as="sourcePoint" />
            <mxPoint x="390" y="150" as="targetPoint" />
          </mxGeometry>
        </mxCell>
        <mxCell id="PBPrK-Bsh0bXipVN9XXb-13" value="" style="endArrow=classic;html=1;rounded=0;entryX=0.5;entryY=0;entryDx=0;entryDy=0;exitX=0.5;exitY=1;exitDx=0;exitDy=0;" parent="1" source="PBPrK-Bsh0bXipVN9XXb-3" target="PBPrK-Bsh0bXipVN9XXb-4" edge="1">
          <mxGeometry width="50" height="50" relative="1" as="geometry">
            <mxPoint x="390" y="220" as="sourcePoint" />
            <mxPoint x="390" y="250" as="targetPoint" />
          </mxGeometry>
        </mxCell>
        <mxCell id="PBPrK-Bsh0bXipVN9XXb-14" value="" style="endArrow=classic;html=1;rounded=0;entryX=0.5;entryY=0;entryDx=0;entryDy=0;exitX=0.5;exitY=1;exitDx=0;exitDy=0;" parent="1" source="PBPrK-Bsh0bXipVN9XXb-4" target="PBPrK-Bsh0bXipVN9XXb-8" edge="1">
          <mxGeometry width="50" height="50" relative="1" as="geometry">
            <mxPoint x="390" y="310" as="sourcePoint" />
            <mxPoint x="390" y="350" as="targetPoint" />
          </mxGeometry>
        </mxCell>
        <mxCell id="PBPrK-Bsh0bXipVN9XXb-15" value="" style="endArrow=classic;html=1;rounded=0;exitX=0;exitY=0.5;exitDx=0;exitDy=0;entryX=0;entryY=0.5;entryDx=0;entryDy=0;" parent="1" source="PBPrK-Bsh0bXipVN9XXb-8" target="PBPrK-Bsh0bXipVN9XXb-4" edge="1">
          <mxGeometry width="50" height="50" relative="1" as="geometry">
            <mxPoint x="390" y="460" as="sourcePoint" />
            <mxPoint x="150" y="530" as="targetPoint" />
            <Array as="points">
              <mxPoint x="120" y="530" />
              <mxPoint x="120" y="395" />
            </Array>
          </mxGeometry>
        </mxCell>
        <mxCell id="PBPrK-Bsh0bXipVN9XXb-16" value="" style="endArrow=classic;html=1;rounded=0;exitX=1;exitY=0.5;exitDx=0;exitDy=0;" parent="1" source="PBPrK-Bsh0bXipVN9XXb-4" target="PBPrK-Bsh0bXipVN9XXb-5" edge="1">
          <mxGeometry width="50" height="50" relative="1" as="geometry">
            <mxPoint x="390" y="310" as="sourcePoint" />
            <mxPoint x="390" y="350" as="targetPoint" />
          </mxGeometry>
        </mxCell>
        <mxCell id="PBPrK-Bsh0bXipVN9XXb-17" value="" style="endArrow=classic;html=1;rounded=0;exitX=0.5;exitY=1;exitDx=0;exitDy=0;entryX=0.5;entryY=0;entryDx=0;entryDy=0;" parent="1" source="PBPrK-Bsh0bXipVN9XXb-5" target="PBPrK-Bsh0bXipVN9XXb-6" edge="1">
          <mxGeometry width="50" height="50" relative="1" as="geometry">
            <mxPoint x="450" y="405" as="sourcePoint" />
            <mxPoint x="640" y="401" as="targetPoint" />
          </mxGeometry>
        </mxCell>
        <mxCell id="5gdWA2JNfWx0KPgpDBzd-1" value="&lt;b style=&quot;font-size: 16px;&quot;&gt;NO&lt;/b&gt;" style="text;html=1;align=center;verticalAlign=middle;resizable=0;points=[];autosize=1;strokeColor=none;fillColor=none;" vertex="1" parent="1">
          <mxGeometry x="435" y="360" width="50" height="30" as="geometry" />
        </mxCell>
        <mxCell id="5gdWA2JNfWx0KPgpDBzd-2" value="&lt;b&gt;&lt;font style=&quot;font-size: 16px;&quot;&gt;SI&lt;/font&gt;&lt;/b&gt;" style="text;html=1;align=center;verticalAlign=middle;resizable=0;points=[];autosize=1;strokeColor=none;fillColor=none;" vertex="1" parent="1">
          <mxGeometry x="379" y="450" width="40" height="30" as="geometry" />
        </mxCell>
      </root>
    </mxGraphModel>
  </diagram>
</mxfile>
